<?xml version="1.0" standalone="no"?>
<!DOCTYPE svg PUBLIC "-//W3C//DTD SVG 20010904//EN"
 "http://www.w3.org/TR/2001/REC-SVG-20010904/DTD/svg10.dtd">
<svg version="1.0" xmlns="http://www.w3.org/2000/svg"
 width="1504.000000pt" height="1504.000000pt" viewBox="0 0 1504.000000 1504.000000"
 preserveAspectRatio="xMidYMid meet">
<g transform="translate(0.000000,1504.000000) scale(0.100000,-0.100000)"
fill="#000000" stroke="none">
<path d="M3873 15007 c-158 -65 -289 -162 -380 -284 -15 -21 -30 -40 -33 -43
-9 -9 -33 -53 -57 -105 -13 -27 -28 -58 -33 -68 -6 -9 -20 -54 -33 -100 l-22
-82 0 -6755 c0 -3715 4 -6780 8 -6810 35 -251 174 -470 388 -613 42 -27 79
-48 82 -46 3 2 13 -3 23 -12 26 -22 84 -42 219 -76 11 -3 74 -7 140 -9 90 -2
140 1 200 15 91 20 157 42 166 54 3 5 9 8 13 7 6 -1 44 16 250 117 50 23 96
43 103 43 7 0 13 5 13 10 0 6 9 10 20 10 11 0 20 4 20 9 0 9 48 26 63 23 4 -1
7 1 7 6 0 4 15 13 33 21 17 8 91 42 162 76 72 34 166 79 210 100 44 21 139 66
212 101 72 35 136 64 142 64 6 0 11 5 11 12 0 6 3 9 6 5 4 -3 27 5 53 18 25
13 96 47 156 75 61 29 144 68 185 87 41 19 82 39 90 44 8 5 28 14 44 20 15 7
48 22 73 35 24 13 51 24 59 24 7 0 14 5 14 10 0 6 4 10 9 10 5 0 63 25 128 57
65 31 120 57 123 58 3 0 28 11 55 24 28 13 53 23 58 23 4 -1 7 3 7 8 0 6 5 10
10 10 10 0 78 31 290 134 47 22 88 40 92 39 3 -1 12 4 18 12 7 8 17 15 23 15
6 0 47 18 91 39 187 91 261 125 269 123 4 -1 7 3 7 8 0 5 3 9 8 8 4 0 46 18
95 40 48 23 88 41 90 40 1 -1 21 11 45 25 23 15 42 25 42 22 0 -3 26 8 58 25
70 36 295 144 302 145 3 0 43 19 90 42 47 23 132 63 190 91 196 92 283 134
343 163 33 16 66 29 74 29 7 0 13 4 13 9 0 5 10 12 22 16 31 10 20 5 143 64
61 30 116 54 123 54 6 0 12 4 12 7 0 4 21 17 48 28 51 22 220 102 582 275 63
30 156 74 205 97 50 23 135 64 190 90 55 26 138 66 185 88 47 22 142 67 212
101 210 100 283 134 290 135 4 1 13 7 20 14 6 6 17 12 23 12 30 0 291 141 342
185 55 48 122 120 158 170 46 65 108 175 98 175 -3 0 -1 6 4 13 5 6 18 39 27
72 10 33 21 72 26 86 13 43 9 295 -5 344 -8 24 -11 46 -8 49 4 3 2 6 -3 6 -5
0 -10 8 -10 18 -1 27 -6 39 -51 131 -41 82 -62 120 -73 131 -3 3 -23 28 -45
55 -22 28 -46 55 -55 61 -8 7 -26 22 -40 34 -14 13 -68 54 -120 93 -52 38 -99
75 -105 81 -5 6 -22 17 -36 25 -15 7 -44 28 -65 47 -22 18 -42 34 -46 34 -4 0
-13 6 -20 13 -7 7 -71 55 -143 107 -71 52 -151 110 -176 130 -25 19 -56 42
-69 50 -12 8 -32 23 -44 32 -11 10 -109 82 -216 160 -107 78 -199 146 -205
150 -5 5 -66 50 -135 100 -178 130 -322 237 -342 253 -9 8 -29 22 -45 32 -15
9 -35 25 -44 35 -9 10 -19 18 -23 18 -6 0 -72 46 -86 60 -3 3 -27 21 -55 40
-48 33 -61 43 -107 83 -12 9 -25 17 -29 17 -4 0 -14 6 -21 13 -7 7 -69 54
-138 104 -69 51 -129 96 -135 100 -5 5 -26 19 -45 33 -19 13 -37 27 -40 30 -3
3 -45 34 -95 70 -49 35 -94 68 -100 73 -5 4 -53 39 -105 77 -52 39 -104 77
-115 86 -11 9 -38 28 -60 42 -22 15 -44 32 -50 38 -5 6 -35 28 -65 50 -30 21
-56 42 -58 46 -2 5 -8 8 -13 8 -6 0 -19 9 -31 20 -12 11 -28 20 -35 20 -7 0
-13 4 -13 8 0 5 -22 24 -50 43 -27 19 -50 37 -50 42 0 4 -5 7 -11 7 -6 0 -23
10 -38 23 -15 12 -40 31 -55 42 -15 11 -75 55 -132 98 -57 42 -106 77 -109 77
-3 0 -14 8 -24 18 -28 24 -41 35 -84 64 -44 30 -48 23 59 101 201 148 322 237
383 282 37 28 80 59 95 70 15 11 46 34 69 51 23 17 87 64 142 104 139 101 168
123 180 133 10 8 219 163 260 192 37 26 210 155 230 171 11 8 32 23 48 32 15
9 27 20 27 24 0 4 6 8 14 8 8 0 16 3 18 8 5 12 127 102 138 102 6 0 10 3 10 8
1 4 24 23 52 42 28 19 59 43 69 53 11 9 21 17 24 17 5 0 64 44 120 88 6 4 87
64 180 132 186 136 252 185 275 203 8 7 83 61 165 121 83 61 155 114 160 118
6 5 60 45 120 89 61 44 117 85 125 92 8 7 47 35 85 62 39 27 76 55 83 62 7 7
26 20 42 30 17 9 30 21 30 25 0 4 4 8 10 8 5 0 18 7 27 15 10 8 61 46 113 84
52 39 100 74 105 79 6 4 69 51 140 102 197 143 250 192 332 308 38 52 73 119
66 126 -4 3 -1 6 5 6 7 0 11 3 10 8 -1 4 3 18 9 32 6 14 18 52 27 85 10 33 21
72 25 86 16 52 4 299 -17 374 -27 91 -45 139 -59 156 -6 8 -13 21 -15 29 -6
27 -97 154 -146 205 -70 71 -151 135 -171 135 -5 0 -11 4 -13 8 -4 10 -171 92
-187 92 -6 0 -11 5 -11 10 0 6 -5 10 -12 10 -7 0 -53 20 -103 44 -49 24 -117
56 -150 72 -33 15 -62 31 -65 34 -3 3 -10 6 -17 7 -7 2 -59 25 -116 53 -57 27
-107 50 -111 50 -4 0 -20 9 -34 19 -15 10 -31 19 -35 19 -4 0 -31 11 -60 25
-29 14 -104 50 -167 80 -63 30 -155 74 -205 97 -49 24 -135 64 -190 90 -55 26
-139 66 -187 89 -48 22 -92 41 -98 41 -5 0 -10 5 -10 10 0 6 -5 10 -11 10 -6
0 -48 18 -92 39 -79 37 -204 97 -387 183 -208 99 -291 138 -375 179 -49 24
-93 42 -97 41 -5 -1 -8 3 -8 8 0 6 -5 10 -11 10 -5 0 -54 21 -107 46 -53 25
-139 66 -189 90 -51 24 -137 65 -190 90 -54 26 -134 64 -178 84 -137 65 -267
126 -354 169 -46 22 -88 41 -93 41 -6 0 -22 9 -38 20 -15 11 -30 17 -34 13 -3
-3 -6 -1 -6 5 0 7 -3 11 -7 10 -5 -1 -43 15 -86 35 -42 20 -82 37 -87 37 -6 0
-10 5 -10 10 0 6 -4 10 -10 10 -10 0 -66 25 -255 115 -66 31 -154 72 -195 92
-41 19 -83 39 -92 44 -10 5 -26 13 -35 18 -10 5 -47 23 -83 39 -36 17 -119 56
-185 87 -66 32 -147 70 -180 85 -33 15 -136 64 -229 109 -92 45 -172 81 -177
81 -5 0 -9 4 -9 10 0 5 -7 7 -15 4 -8 -4 -15 -1 -15 5 0 6 -4 11 -9 11 -10 0
-238 105 -261 120 -8 6 -22 13 -30 17 -46 19 -129 57 -235 108 -352 168 -410
197 -462 233 -60 41 -154 91 -182 97 -9 3 -34 11 -56 19 -31 12 -91 15 -275
15 l-235 1 -82 -33z m1274 -2276 c37 -19 188 -91 348 -166 170 -80 294 -139
385 -182 232 -111 280 -134 360 -171 80 -37 202 -95 387 -183 171 -81 421
-200 583 -276 41 -20 105 -51 143 -69 37 -18 67 -31 67 -27 0 3 8 -1 18 -9 9
-8 51 -29 92 -48 41 -18 79 -37 84 -41 6 -5 18 -9 28 -9 10 0 18 -4 18 -10 0
-5 4 -10 9 -10 9 0 99 -41 301 -137 253 -121 300 -143 308 -143 4 0 14 -6 21
-12 6 -7 15 -13 19 -14 12 -1 51 -19 192 -87 74 -36 176 -84 225 -107 50 -23
128 -61 175 -83 47 -22 87 -41 90 -42 3 0 21 -9 40 -20 19 -11 37 -20 40 -20
20 -4 50 -18 50 -23 0 -4 -15 -17 -33 -30 -17 -13 -73 -53 -123 -91 -49 -37
-112 -82 -139 -101 -26 -18 -56 -40 -67 -49 -10 -9 -27 -24 -38 -33 -11 -10
-20 -16 -20 -13 0 3 -49 -32 -109 -77 -60 -46 -119 -90 -131 -98 -13 -8 -35
-24 -49 -36 -59 -46 -371 -274 -376 -274 -3 0 -13 -8 -23 -17 -10 -10 -81 -63
-157 -118 -76 -55 -146 -107 -155 -116 -9 -8 -23 -19 -31 -22 -8 -4 -34 -23
-59 -42 -25 -19 -56 -43 -70 -52 -14 -10 -43 -32 -66 -50 -23 -18 -46 -33 -53
-33 -6 0 -11 -4 -11 -9 0 -5 -17 -20 -37 -32 -41 -25 -65 -44 -95 -71 -10 -10
-19 -17 -21 -15 -1 1 -9 -4 -17 -10 -8 -7 -44 -34 -80 -60 -36 -26 -69 -51
-75 -56 -5 -4 -71 -52 -145 -106 -186 -136 -224 -165 -230 -171 -3 -3 -18 -14
-35 -24 -16 -11 -34 -23 -40 -28 -5 -5 -62 -47 -125 -94 -63 -47 -126 -94
-140 -104 -14 -10 -78 -57 -143 -105 l-118 -86 -62 45 c-34 25 -73 54 -86 63
-13 10 -99 73 -190 141 -91 67 -211 155 -266 194 -55 40 -102 75 -105 78 -3 3
-30 23 -60 45 -30 22 -64 48 -74 57 -11 10 -23 18 -27 18 -4 0 -14 6 -21 13
-7 7 -43 35 -80 62 -66 48 -75 63 -70 116 1 6 2 67 2 154 0 28 1 56 1 63 1 83
0 125 -3 165 -2 17 0 42 4 54 4 12 3 25 -3 28 -5 4 -7 10 -5 14 5 7 5 29 6
156 0 28 1 56 1 63 1 83 0 125 -3 165 -2 17 0 42 4 54 4 12 3 25 -3 28 -5 4
-7 10 -5 14 5 7 5 29 6 156 0 28 1 56 1 63 1 83 0 125 -3 165 -2 17 0 42 4 54
4 12 3 25 -3 28 -5 4 -7 10 -5 14 5 7 5 29 6 156 0 28 1 56 1 63 1 83 0 125
-3 165 -2 17 0 42 4 54 4 12 3 25 -3 28 -5 4 -7 10 -5 14 5 7 5 29 6 156 0 28
1 56 1 63 1 83 0 125 -3 165 -2 17 0 42 4 54 4 12 3 25 -3 28 -5 4 -7 10 -5
14 5 7 5 29 6 156 0 28 1 56 1 63 1 83 0 125 -3 165 -2 17 0 42 4 54 4 12 3
25 -3 28 -5 4 -7 10 -5 14 5 7 5 29 6 156 0 28 1 56 1 63 0 67 0 121 -2 152
-3 58 6 62 68 31z m997 -6327 c9 -8 16 -12 16 -7 0 4 5 0 11 -9 5 -10 17 -18
24 -18 8 0 15 -5 15 -10 0 -6 7 -13 16 -17 9 -3 28 -17 42 -29 14 -13 29 -24
33 -24 5 0 17 -8 27 -17 11 -10 32 -27 47 -38 61 -44 241 -177 258 -190 9 -8
21 -15 25 -15 4 0 14 -9 22 -20 8 -11 18 -20 23 -20 10 0 90 -61 95 -72 2 -5
8 -8 13 -8 7 0 81 -52 164 -117 6 -5 29 -21 53 -37 23 -16 42 -33 42 -37 0 -5
5 -9 10 -9 8 0 190 -130 210 -150 3 -3 28 -21 55 -39 28 -19 52 -38 55 -41 3
-3 28 -22 55 -41 28 -18 52 -36 55 -39 3 -3 48 -37 100 -75 52 -38 101 -75
108 -82 7 -7 16 -13 20 -13 4 0 20 -12 37 -26 16 -14 44 -34 62 -45 18 -11 33
-26 33 -31 0 -6 3 -9 6 -5 4 3 12 1 20 -6 21 -19 34 -29 114 -87 41 -29 79
-58 85 -62 5 -5 35 -26 65 -48 30 -22 60 -43 65 -48 6 -4 26 -19 45 -32 19
-14 37 -27 40 -30 3 -3 21 -17 40 -30 19 -13 37 -27 40 -30 3 -3 24 -18 48
-34 23 -16 42 -33 42 -37 0 -5 6 -9 13 -9 6 0 26 -11 42 -25 17 -13 84 -63
150 -112 66 -48 125 -91 130 -95 81 -64 228 -168 235 -168 6 0 10 -4 10 -9 0
-5 16 -19 36 -32 l36 -22 -23 -18 c-13 -10 -27 -19 -31 -19 -7 0 -58 -24 -318
-148 -52 -25 -97 -46 -100 -47 -3 0 -45 -21 -95 -45 -49 -24 -97 -45 -105 -46
-8 -2 -16 -8 -18 -13 -2 -6 -10 -11 -17 -11 -7 0 -49 -18 -94 -40 -44 -22 -85
-40 -90 -40 -5 0 -14 -7 -21 -15 -7 -9 -15 -13 -18 -11 -3 3 -17 -1 -31 -9
-30 -17 -449 -217 -461 -220 -19 -5 -66 -31 -72 -40 -4 -5 -8 -7 -8 -3 0 4
-35 -10 -77 -31 -43 -22 -107 -52 -143 -69 -36 -16 -132 -62 -213 -101 -82
-39 -153 -71 -158 -71 -5 0 -9 -5 -9 -12 0 -6 -3 -9 -6 -5 -4 3 -30 -6 -58
-20 -28 -15 -53 -27 -56 -28 -3 0 -48 -21 -100 -47 -243 -118 -356 -171 -367
-171 -7 0 -13 -4 -13 -9 0 -4 -4 -8 -9 -8 -5 0 -78 -33 -163 -74 -146 -70
-255 -121 -343 -162 -22 -10 -43 -22 -46 -27 -3 -5 -10 -9 -15 -9 -17 -1 -180
-76 -386 -178 -31 -16 -59 -26 -62 -22 -3 3 -6 0 -6 -6 0 -7 -5 -12 -11 -12
-6 0 -54 -21 -107 -47 -54 -26 -99 -48 -102 -48 -3 -1 -24 -11 -48 -23 -44
-24 -49 -21 -51 23 -2 43 -3 154 -2 240 0 50 0 122 0 160 0 39 0 111 0 160 0
50 0 122 0 160 0 39 0 111 0 160 0 50 0 122 0 160 0 39 0 111 0 160 0 50 0
122 0 160 0 39 0 111 0 160 0 50 0 122 0 160 0 39 0 111 0 160 0 50 0 122 0
160 0 39 0 111 0 160 0 50 0 122 0 160 -1 39 -1 102 0 140 0 39 0 90 -2 115
-1 25 1 57 5 72 3 15 3 30 -1 32 -8 5 -5 81 4 95 3 5 1 12 -5 16 -6 4 -8 10
-6 14 5 7 5 29 6 156 0 28 1 56 1 63 0 28 0 103 -1 120 0 9 -1 36 -1 60 -1 24
1 46 4 49 3 3 2 15 -3 27 -5 13 -3 30 4 43 9 18 134 116 216 170 14 9 30 21
35 27 6 6 36 29 68 50 31 22 57 43 57 48 0 4 5 8 11 8 7 0 31 16 55 35 23 19
45 35 49 35 3 0 13 7 22 15 8 9 41 34 72 55 31 22 76 56 101 75 25 18 63 46
85 62 22 15 46 34 54 41 8 7 26 21 40 30 42 26 146 106 149 114 6 13 30 9 46
-8z"/>
</g>
</svg>
