<svg xmlns="http://www.w3.org/2000/svg" width="161" height="34" xml:space="preserve"><path fill="#5BC0DE" d="M158 34H3a3 3 0 0 1-3-3V3a3 3 0 0 1 3-3h155a3 3 0 0 1 3 3v28a3 3 0 0 1-3 3z"/><path fill="#FFF" d="M56.94 16.98c0 1.52-.47 2.74-1.42 3.65a5.24 5.24 0 0 1-3.8 1.37h-3.47v-9.8h3.47c3.48 0 5.22 1.59 5.22 4.78zm-2.32.02c0-.91-.26-1.64-.78-2.17-.54-.56-1.31-.83-2.3-.83h-1.09v6.2h1.1c.96 0 1.72-.28 2.27-.87.53-.57.8-1.35.8-2.33zM64.64 19.11h-4.57c.08 1.02.72 1.53 1.92 1.53.77 0 1.45-.18 2.03-.55v1.56c-.64.35-1.48.52-2.52.52-1.14 0-2.03-.32-2.65-.96a3.57 3.57 0 0 1-.92-2.6c0-1.23.38-2.2 1.14-2.88.65-.6 1.44-.9 2.36-.9 1.07 0 1.88.33 2.44.99.51.6.77 1.4.77 2.39v.9zm-2-1.32c0-1-.4-1.5-1.22-1.5-.36 0-.67.15-.93.46-.24.28-.38.63-.43 1.04h2.58zM73.2 18.3a4.3 4.3 0 0 1-.86 2.81 2.82 2.82 0 0 1-2.3 1.06c-.85 0-1.5-.33-1.93-.98h-.03v4.03h-2.16V15h2.16v1.05h.03a2.52 2.52 0 0 1 2.25-1.22c.96 0 1.68.34 2.18 1.03.44.62.66 1.43.66 2.44zm-2.21.03c0-1.23-.48-1.85-1.44-1.85-.43 0-.8.17-1.08.5s-.42.78-.42 1.33v.57c0 .48.13.87.38 1.18s.6.46 1 .46c.5 0 .89-.2 1.15-.58s.4-.92.4-1.61zM76.77 22H74.6V11.64h2.16V22zM85.74 18.4a3.7 3.7 0 0 1-1 2.74 3.8 3.8 0 0 1-2.82 1.03 3.76 3.76 0 0 1-2.75-.98c-.67-.65-1-1.54-1-2.66 0-1.18.36-2.1 1.08-2.76.68-.63 1.6-.94 2.77-.94 1.2 0 2.14.35 2.8 1.05.62.65.92 1.49.92 2.52zm-2.2.05c0-1.31-.52-1.97-1.56-1.97-.5 0-.9.17-1.17.5-.3.36-.45.86-.45 1.52 0 1.34.54 2.02 1.63 2.02 1.03 0 1.55-.7 1.55-2.07zM93.8 15l-2.84 7.56c-.69 1.82-1.72 2.73-3.1 2.73-.5 0-.92-.06-1.28-.18V23.4c.28.17.6.25.93.25.56 0 .94-.26 1.16-.78l.37-.87L86.2 15h2.4l1.3 4.26c.08.29.15.6.19.94h.03c.04-.28.12-.58.22-.93L91.66 15h2.14zM101.98 21.93c-.27.15-.62.23-1.06.23-1.22 0-1.83-.69-1.83-2.07v-4.14h-1.2V15h1.2v-1.7l1.12-.37V15h1.77v.95h-1.77v3.95c0 .47.08.8.24 1 .16.2.43.3.8.3.28 0 .52-.07.73-.23v.96zM109.83 18.47c0 1.12-.31 2.02-.94 2.69s-1.48 1.01-2.54 1.01a3.22 3.22 0 0 1-2.5-1.01c-.6-.65-.9-1.51-.9-2.58 0-1.21.33-2.15 1.02-2.82a3.48 3.48 0 0 1 2.54-.93c1.04 0 1.86.32 2.44.97.59.65.88 1.54.88 2.67zm-1.15.04c0-.9-.2-1.58-.6-2.05-.4-.45-.95-.67-1.65-.67s-1.26.22-1.68.68a2.98 2.98 0 0 0-.66 2.07c0 .84.21 1.5.64 1.97.42.47.99.7 1.7.7.74 0 1.3-.23 1.69-.71.37-.47.56-1.13.56-1.99zM123.14 22h-1.27l-1.03-2.74h-4.16L115.7 22h-1.28l3.75-9.8h1.19l3.78 9.8zm-2.69-3.78-1.53-4.17c-.05-.11-.1-.34-.16-.66h-.03c-.04.27-.09.5-.15.66l-1.52 4.17h3.4zM129.32 15.32l-4.15 5.73h4.1V22h-5.75v-.35l4.15-5.7h-3.76V15h5.41v.32zM136.42 22h-1.12v-1.1h-.03a2.3 2.3 0 0 1-2.16 1.27c-1.67 0-2.5-1-2.5-2.99V15h1.12v4c0 1.48.56 2.21 1.7 2.21.53 0 .98-.2 1.34-.59.35-.4.53-.92.53-1.59V15h1.12v7zM142.34 16.14c-.2-.15-.48-.23-.86-.23-.45 0-.84.2-1.15.61-.35.46-.52 1.1-.52 1.91V22h-1.12v-7h1.12v1.44h.02c.17-.5.42-.9.76-1.18.32-.26.68-.38 1.08-.38.3 0 .52.03.67.1v1.16zM148.95 18.78H144c.02.78.23 1.39.63 1.8s.95.63 1.66.63c.78 0 1.5-.25 2.16-.76v1.04a4 4 0 0 1-2.43.68c-.96 0-1.72-.3-2.28-.9-.6-.64-.9-1.55-.9-2.74 0-1.13.33-2.04.98-2.73a2.96 2.96 0 0 1 2.24-.97c.95 0 1.67.32 2.18.95.47.6.7 1.4.7 2.41v.59zm-1.15-.95c-.01-.64-.16-1.14-.45-1.49a1.6 1.6 0 0 0-1.3-.55c-.53 0-.98.18-1.35.56-.37.38-.6.87-.68 1.48h3.78zM29 18.4c-.8 0-1.5.5-1.9 1.2H15.3c-2 0-3.6-1.6-3.6-3.6s1.6-3.6 3.6-3.6H17c.1-.4.2-.8.4-1.2 0-.2.1-.4.1-.5.8-1.5 2.4-2.4 4.2-2.4 1.6 0 3 .8 3.9 2 .5-.2 1-.4 1.6-.5a6.56 6.56 0 0 0-5.5-3.1c-2.7 0-5 1.7-6 4.1h-.4c-2.9-.1-5.3 2.3-5.3 5.2s2.4 5.3 5.3 5.3h11.9c.3.7 1 1.2 1.9 1.2a2 2 0 0 0 2-2c0-1.2-.9-2.1-2.1-2.1z"/><path fill="#FFF" d="M35.6 14.4a7.4 7.4 0 0 0-6.6-4.1 7.2 7.2 0 0 0-7.1 5.7c-1.7.2-3.2 1.1-4.1 2.4h8.7c.6-.7 1.5-1.2 2.5-1.2 1.8 0 3.2 1.5 3.2 3.2 0 1.8-1.5 3.2-3.2 3.2-1 0-1.9-.5-2.5-1.2h-9.6a5.7 5.7 0 0 0 5.6 4.9h13a6.44 6.44 0 1 0 .1-12.9z"/></svg>
